<svg xmlns="http://www.w3.org/2000/svg" xmlns:xlink="http://www.w3.org/1999/xlink" viewBox="0 0 1080 1080">
    <style>
        .Y {
            stroke-miterlimit: 10
        }

        .Z {
            fill: #1baba3
        }

        .a {
            fill: #536fe3
        }

        .b {
            fill: #2499d4
        }

        .c {
            fill: #81ffae
        }

        .d {
            fill: #717ea8
        }
    </style>
    <linearGradient id="A" gradientUnits="userSpaceOnUse" x1="11.716" y1="11.716" x2="1068.284" y2="1068.284">
        <stop offset="0" stop-color="#2c3764" />
        <stop offset="1" stop-color="#050d27" />
    </linearGradient>
    <path
        d="M1040 1080H40c-22.09 0-40-17.91-40-40V40C0 17.91 17.91 0 40 0h1000c22.09 0 40 17.91 40 40v1000c0 22.09-17.91 40-40 40z"
        fill="url(#A)" />
    <g fill="none" class="Y">
        <path d="M940.743 214.037v732.296M199.46 214.037v732.296" stroke="#717ea8" stroke-width="2"
            stroke-linecap="round" stroke-dasharray="0,5.97792" />
        <g stroke-width="3">
            <path d="M199.46 226.59l741.282 472.555" stroke="#81ffae" />
            <path d="M199.46 365.577l741.282 370.6" stroke="#1baba3" />
            <path d="M199.46 560.156l741.282 231.646" stroke="#fff" />
            <path d="M199.46 699.144l741.282 129.722" stroke="#2499d4" />
            <path d="M199.46 801.066l741.282 111.192" stroke="#536fe3" />
        </g>
    </g>
    <circle cx="199.46" cy="801.066" r="22.5" class="a" />
    <circle cx="199.46" cy="699.144" r="22.5" class="b" />
    <circle cx="199.46" cy="560.156" r="22.5" fill="#fff" />
    <circle cx="199.46" cy="365.577" r="22.5" class="Z" />
    <g class="c">
        <circle cx="940.743" cy="699.146" r="22.5" />
        <circle cx="199.46" cy="226.591" r="22.5" />
    </g>
    <circle cx="940.743" cy="912.258" r="22.5" class="a" />
    <circle cx="940.743" cy="828.866" r="22.5" class="b" />
    <circle cx="940.743" cy="791.802" r="22.5" fill="#fff" />
    <circle cx="940.743" cy="736.167" r="22.5" class="Z" />
    <g class="c">
        <path
            d="M64.045 237.015c-.416 0-.896-.288-.896-.896v-10.4H50.733v10.4c0 .576-.416.896-.896.896-.448 0-.928-.288-.928-.896v-21c0-.608.48-.896.928-.896.48 0 .896.32.896.896v8.767h12.415v-8.767c0-.576.416-.896.896-.896.448 0 .928.288.928.896v21c0 .576-.448.896-.928.896z" />
        <use xlink:href="#C" />
        <path
            d="M79.47 237.623c-1.92 0-5.152-.672-6.272-2.528-.128-.192-.128-.352-.128-.48 0-.512.448-.96.93-.96.2 0 .512.16.703.448 1.152 1.408 3.2 1.696 4.77 1.696 3.104 0 4.67-1.024 4.67-3.104 0-4.832-10.495-2.27-10.495-8.67 0-3.23 3.232-4.48 6.144-4.48 1.664 0 4.224.576 5.504 1.856.2.192.288.416.288.608 0 .48-.48.96-.992.96a.85.85 0 0 1-.608-.256c-1-.96-2.783-1.344-4.2-1.344-2.815 0-4.32 1.088-4.32 2.656 0 4.48 10.495 2.112 10.495 8.67 0 3.648-3.2 4.928-6.495 4.928zm17.036-.063c-2.784 0-4.864-1.152-6.208-3.04v8.287a.92.92 0 0 1-.896.928c-.448 0-.928-.352-.928-.928V220.92c0-.576.48-.896.928-.896.416 0 .896.32.896.896v1.568c1.344-1.856 3.424-3.008 6.208-3.008 5.15 0 8.03 4.224 8.03 9.023 0 4.832-2.88 9.055-8.03 9.055zm0-16.255c-3.808 0-6.208 3.04-6.208 7.2s2.4 7.23 6.208 7.23 6.207-3.072 6.207-7.23-2.4-7.2-6.207-7.2z" />
        <use xlink:href="#D" />
        <path
            d="M140.87 237.015c-.447 0-.928-.32-.928-.896v-9.343a5.45 5.45 0 0 0-5.472-5.472 5.47 5.47 0 0 0-5.472 5.472v9.343c0 .576-.48.896-.896.896-.448 0-.928-.32-.928-.896v-15.2c0-.576.48-.896.928-.896.416 0 .896.32.896.896v1.024c1.44-1.568 3.328-2.464 5.472-2.464 3.968 0 7.296 3.296 7.296 7.295v9.343c0 .576-.48.896-.896.896z" />
        <use xlink:href="#C" x="76.371" />
        <use xlink:href="#E" />
    </g>
    <g class="Z">
        <path
            d="M101.427 376.122h-9.28c-.48 0-.928-.448-.928-.896v-21c0-.544.288-.896.832-.896h8.67c3.168 0 5.76 2.624 5.76 5.695 0 1.888-.832 3.52-2.27 4.576 2.304 1.056 3.808 3.328 3.808 5.952 0 3.648-2.944 6.56-6.592 6.56zm-.704-21h-7.68v7.87h7.68c2.592 0 3.936-2.304 3.936-3.904 0-2.208-1.792-3.967-3.936-3.967zm.704 9.695h-8.384v9.472h8.384c2.624 0 4.768-2.112 4.768-4.736s-2.144-4.736-4.768-4.736zm12.72 11.496c-1.728 0-3.167-1.6-3.167-3.392v-18.687c0-.576.48-.896.928-.896.416 0 .896.32.896.896v18.687c0 2.048 2.272.864 2.272 2.304 0 .544-.385 1.088-.93 1.088z" />
        <use xlink:href="#D" x="9.335" y="139.107" />
        <use xlink:href="#E" x="-14.497" y="139.107" />
        <path
            d="M163.95 360.7l-5.504 5.503 5.44 8.512c.097.128.192.32.192.512 0 .448-.48.864-.96.864-.288 0-.576-.128-.768-.416l-5.248-8.16-3.296 3.328v4.384c0 .576-.48.896-.896.896-.448 0-.928-.32-.928-.896v-21c0-.576.48-.896.928-.896.416 0 .896.32.896.896v14.015l8.832-8.83c.224-.224.447-.288.672-.288.512 0 .928.416.928.896 0 .224-.064.448-.288.672z" />
    </g>
    <g fill="#fff">
        <path
            d="M54.054 570c-.54 0-1.08-.288-1.367-.936l-1.908-4.68H38.792l-1.943 4.68c-.288.647-.828.936-1.332.936-.792 0-1.62-.612-1.62-1.512 0-.216.036-.432.145-.612l9.25-22.497c.432-.936 1.008-1.115 1.476-1.115.323 0 1.115.18 1.476 1.115l9.287 22.497a1.7 1.7 0 0 1 .107.612c0 .9-.756 1.512-1.584 1.512zm-9.286-20.157l-4.716 11.446h9.43l-4.715-11.446z" />
        <use xlink:href="#F" />
        <use xlink:href="#F" x="7.369" />
        <path
            d="M86.982 570h-.6c-3.42 0-4.716-1.8-4.716-4.75v-11.303h-1.08c-.863 0-1.547-.685-1.547-1.512 0-.864.684-1.548 1.512-1.548h1.08v-5.004c0-1.008.756-1.512 1.548-1.512s1.512.504 1.512 1.512v5.004h2.304c1.008 0 1.513.827 1.513 1.512 0 .863-.576 1.548-1.513 1.548H84.68v11.626c0 1.008.36 1.368 1.368 1.368h.9c.936 0 1.548.684 1.548 1.512 0 .864-.576 1.548-1.513 1.548zm18.953-8H92.617c.504 3.384 2.664 5.544 5.83 5.544 1.62 0 3.24-.576 4.283-1.872.324-.36.685-.576 1.116-.576.792 0 1.62.72 1.62 1.584 0 .432-.108.756-.864 1.512-1.62 1.584-3.852 2.412-6.155 2.412-5.795 0-9.035-4.788-9.035-10.187 0-5.363 3.24-10.15 9.035-10.15 5.867 0 9 4.787 9 10.15 0 .792-.576 1.584-1.512 1.584zm-7.487-8.675c-3.384 0-5.363 2.483-5.83 5.58h11.662c-.504-3.455-2.663-5.58-5.83-5.58zm27.72 8.675H112.85c.504 3.384 2.664 5.544 5.83 5.544 1.62 0 3.24-.576 4.283-1.872.324-.36.685-.576 1.116-.576.792 0 1.62.72 1.62 1.584 0 .432-.108.756-.864 1.512-1.62 1.584-3.852 2.412-6.155 2.412-5.795 0-9.035-4.788-9.035-10.187 0-5.363 3.24-10.15 9.035-10.15 5.867 0 9 4.787 9 10.15 0 .792-.576 1.584-1.512 1.584zm-7.487-8.675c-3.384 0-5.363 2.483-5.83 5.58h11.662c-.504-3.455-2.663-5.58-5.83-5.58zM145.452 570c-.792 0-1.512-.54-1.512-1.512V558.48c0-2.808-2.34-5.147-5.147-5.147-2.77 0-5.1 2.34-5.1 5.147v9.97c0 1.008-.756 1.584-1.584 1.584a1.48 1.48 0 0 1-1.512-1.548v-16.1c0-1.044.756-1.512 1.512-1.512.72 0 1.368.396 1.548 1.188a8.2 8.2 0 0 1 5.147-1.8c4.464 0 8.207 3.708 8.207 8.207v9.97c0 1.008-.72 1.548-1.548 1.548zm11.406.612c-1.98 0-5.292-.612-6.983-2.7-.216-.324-.324-.647-.324-.936 0-.9.864-1.62 1.62-1.62.432 0 .756.216 1.116.612 1.115 1.224 2.95 1.584 4.57 1.584 3.24 0 4.283-1.116 4.283-2.736 0-4.607-10.98-1.764-10.98-9.18 0-3.924 3.672-5.363 7.1-5.363 1.944 0 6.516.972 6.516 2.987 0 .792-.648 1.62-1.512 1.62-.324 0-.828-.18-1.188-.468-.972-.828-2.375-1.08-3.815-1.08-2.987 0-4.03 1.116-4.03 2.304 0 4.283 11.015 1.512 11.015 9.18 0 4.248-3.563 5.796-7.38 5.796z" />
    </g>
    <g fill="#26a0de">
        <path
            d="M114.822 687.357l-5.632 20.96c-.128.448-.48.672-.896.672-.384 0-.768-.224-.863-.672l-4.8-17.727-4.768 17.727c-.096.448-.48.672-.864.672-.416 0-.768-.224-.896-.672l-5.632-20.96c-.032-.096-.032-.2-.032-.287a.93.93 0 0 1 .928-.929c.416 0 .736.225.832.704l4.8 17.727 4.768-17.727c.128-.448.48-.64.864-.64.416 0 .768.2.896.64l4.768 17.727 4.8-17.727c.128-.48.448-.704.832-.704a.93.93 0 0 1 .928.929.9.9 0 0 1-.031.287zm16.028 21.63c-.447 0-.928-.32-.928-.896v-9.344a5.45 5.45 0 0 0-5.472-5.472 5.47 5.47 0 0 0-5.472 5.472v9.344c0 .575-.48.896-.896.896-.448 0-.928-.32-.928-.896v-21c0-.575.48-.896.928-.896.416 0 .896.32.896.896v6.815c1.344-1.567 3.296-2.464 5.472-2.464a7.36 7.36 0 0 1 7.296 7.296v9.344c0 .575-.48.896-.896.896z" />
        <use xlink:href="#G" />
        <path
            d="M146.47 708.988h-.992c-2.527 0-3.775-1.248-3.775-3.744V693.82h-1.632c-.576 0-.896-.48-.896-.928 0-.416.32-.896.896-.896h1.632V687.1c0-.575.48-.896.928-.896s.896.32.896.896v4.896h2.944c.576 0 .896.48.896.896 0 .448-.32.928-.896.928h-2.944v11.423c0 1.568.448 1.92 1.952 1.92h.992c.576 0 .896.48.896.93 0 .416-.32.896-.896.896zm16.617-7.583h-13.28c.288 3.647 2.656 6.303 6.144 6.303 1.73 0 3.776-.768 4.704-2.207.224-.353.48-.448.768-.448.48 0 .992.384.992.863 0 .288 0 .353-.608 1.057-1.472 1.728-3.615 2.56-5.855 2.56-5.15 0-8.03-4.224-8.03-9.056 0-4.8 2.88-9.023 8.03-9.023s8.03 4.256 8.03 9.023c0 .48-.447.93-.895.93zm-7.136-8.128c-3.84 0-5.855 2.944-6.144 6.304h12.32c-.288-3.647-2.656-6.304-6.176-6.304z" />
    </g>
    <g fill="#5a78f5">
        <path
            d="M106.668 812.52c-.32 0-.672-.192-.832-.544l-2.048-4.928h-11.52l-2.048 4.928c-.128.352-.512.544-.8.544-.48 0-.928-.352-.928-.864 0-.16 0-.256.064-.416l8.64-20.958c.16-.384.544-.608.93-.608.32 0 .607.192.768.608l8.64 20.958c.063.16.063.257.063.416 0 .513-.448.864-.928.864zm-8.64-19.486l-5.023 12.2h10.08l-5.056-12.2zm16.832 20.096c-1.92 0-5.152-.673-6.272-2.528-.128-.192-.128-.352-.128-.48 0-.513.448-.96.93-.96.2 0 .512.16.703.447 1.152 1.408 3.2 1.696 4.77 1.696 3.104 0 4.67-1.024 4.67-3.104 0-4.832-10.495-2.272-10.495-8.672 0-3.23 3.232-4.48 6.144-4.48 1.664 0 4.224.576 5.504 1.855.2.192.288.416.288.608 0 .48-.48.96-.992.96a.85.85 0 0 1-.608-.256c-1-.96-2.783-1.344-4.2-1.344-2.815 0-4.32 1.088-4.32 2.655 0 4.48 10.495 2.112 10.495 8.672 0 3.647-3.2 4.928-6.495 4.928z" />
        <use xlink:href="#G" x="-11.442" y="103.534" />
        <path
            d="M145.918 812.52h-.03c-1.057 0-2.56-.576-3.168-2.496-1.344 1.888-3.424 3.04-6.208 3.04-5.216 0-8.03-4.288-8.03-9.056 0-4.83 2.88-9.023 8.03-9.023 2.784 0 4.864 1.152 6.208 3.008v-1.567c0-.512.416-.896.928-.896.448 0 .896.32.896.896v12.895c0 2.048 2.305.77 2.305 2.305 0 .416-.288.895-.93.895zm-9.407-15.7c-3.775 0-6.207 3.04-6.207 7.2s2.432 7.23 6.207 7.23c3.808 0 6.208-3.07 6.208-7.23s-2.4-7.2-6.208-7.2zm26.13 15.7c-.447 0-.928-.32-.928-.896v-9.344a5.45 5.45 0 0 0-5.472-5.472 5.47 5.47 0 0 0-5.472 5.472v9.344c0 .575-.48.896-.896.896-.448 0-.928-.32-.928-.896v-15.2c0-.576.48-.896.928-.896.416 0 .896.32.896.896v1.023c1.44-1.567 3.328-2.464 5.472-2.464a7.36 7.36 0 0 1 7.296 7.296v9.344c0 .575-.48.896-.896.896z" />
    </g>
    <g fill="#fff">
        <use xlink:href="#H" />
        <use xlink:href="#I" />
        <path
            d="M1014.006 804.594c-3.744 0-6.848-3.04-6.848-6.815 0-2.624 1.377-4.863 3.52-6.016-1.63-1.056-2.687-2.88-2.687-5.056a6.03 6.03 0 0 1 6.016-6.016 6.03 6.03 0 0 1 6.016 6.016c0 2.176-1.088 4-2.72 5.056 2.143 1.152 3.52 3.392 3.52 5.983 0 3.744-3.008 6.848-6.816 6.848zm0-11.84c-2.72 0-5.023 2.208-5.023 4.99 0 2.752 2.24 5.023 4.992 5.023 2.783 0 5.023-2.27 5.023-4.99 0-2.784-2.207-5.023-4.992-5.023zm0-10.24c-2.336 0-4.19 1.888-4.19 4.19s1.855 4.224 4.19 4.224c2.305 0 4.19-1.888 4.19-4.224 0-2.304-1.887-4.19-4.19-4.19z" />
        <use xlink:href="#J" />
    </g>
    <g class="c">
        <use xlink:href="#H" y="-92.657" />
        <use xlink:href="#K" />
        <use xlink:href="#I" x="15.936" y="-92.655" />
        <use xlink:href="#J" x="0.8" y="-92.655" />
    </g>
    <g class="Z">
        <use xlink:href="#H" y="-55.637" />
        <use xlink:href="#K" y="37.02" />
        <path
            d="M1014.004 748.958c-6.783 0-6.846-8.127-6.846-12.8 0-4.576.703-11.104 6.814-11.104 5.984 0 6.88 6.144 6.88 11.104 0 4.64-.096 12.8-6.848 12.8zm5.025-12.8c0-4.576-.64-9.28-5.025-9.28-4.8 0-5.023 5.888-5.023 9.28v2.048c0 3.712.705 8.927 4.992 8.927 4.385 0 5.057-5.215 5.057-8.927v-2.048zm6.49-5.138c-1.625 0-2.95-1.475-2.95-3.285s1.324-3.266 2.95-3.266c1.604 0 2.93 1.456 2.93 3.266s-1.326 3.285-2.93 3.285zm0-5.506c-.934 0-1.885.877-1.885 2.22s.95 2.22 1.885 2.22 1.865-.877 1.865-2.22-.934-2.22-1.865-2.22zm7.053-.7l-3.564 12.877c-.092.26-.242.392-.467.392-.28 0-.578-.224-.578-.54 0-.057 0-.112.02-.15l3.564-12.877c.094-.28.262-.4.484-.4a.59.59 0 0 1 .561.56c0 .038 0 .075-.02.15zm2.314 12.933c-1.605 0-2.93-1.475-2.93-3.284 0-1.792 1.324-3.266 2.93-3.266 1.623 0 2.95 1.474 2.95 3.266 0 1.8-1.326 3.284-2.95 3.284zm0-5.486c-.934 0-1.865.877-1.865 2.202 0 1.344.932 2.22 1.865 2.22.95 0 1.885-.877 1.885-2.22 0-1.325-.934-2.202-1.885-2.202z" />
    </g>
    <g class="b">
        <use xlink:href="#H" y="37.063" />
        <use xlink:href="#I" x="-0.32" y="37.065" />
        <path
            d="M1012.79 841.658c-2.496 0-4.61-1.312-5.824-3.23-.096-.192-.13-.384-.13-.513 0-.512.48-.96.928-.96.29 0 .545.16.736.48a5.07 5.07 0 0 0 4.289 2.399c2.75 0 5.023-2.27 5.023-4.99 0-2.784-2.24-5.023-4.992-5.023h-.03a.93.93 0 0 1-.93-.928c0-.544.45-.896.93-.896h.03c2.27 0 4.19-1.888 4.19-4.224a4.23 4.23 0 0 0-4.191-4.191c-3.488 0-3.936 3.327-5.215 3.327-.48 0-.96-.384-.96-.896 0-.704 2.432-4.256 6.176-4.256 3.295 0 6.016 2.72 6.016 6.016a5.9 5.9 0 0 1-2.752 5.056c2.176 1.152 3.55 3.392 3.55 5.983 0 3.744-3.04 6.848-6.846 6.848z" />
        <use xlink:href="#J" x="-1.345" y="37.065" />
    </g>
    <g class="a">
        <use xlink:href="#H" y="117.832" />
        <path
            d="M1002.838 900.316l-8.096 21c-.2.416-.48.608-.8.608-.447 0-.96-.384-.96-.928 0-.13.03-.225.064-.353l7.582-19.742H990.55c-.48 0-.928-.416-.928-.896s.447-.896.928-.896h11.424c.574 0 .96.32.96.8a.98.98 0 0 1-.096.416zm12.894 17.31h-2.078v3.36c0 .575-.48.896-.93.896-.416 0-.895-.32-.895-.896v-3.36h-8.607c-.64 0-.96-.352-.96-.8 0-.16.033-.384.16-.576l9.023-17.215a.93.93 0 0 1 .832-.512c.447 0 .928.384.928.896a1.06 1.06 0 0 1-.127.48l-8.32 15.903h7.072v-4.128c0-.64.48-.96.895-.96.45 0 .93.32.93.928v4.16h2.078c.576 0 .896.447.896.896s-.32.928-.896.928z" />
        <use xlink:href="#J" x="-6.335" y="117.843" />
    </g>
    <g class="d">
        <path
            d="M175.82 184.95v-1.92c2.048-6.848 8.447-10.687 8.447-15.935 0-2.432-1.216-3.648-2.784-3.648-1.823 0-3.168 1.408-3.36 4.864h-2.112c.256-5.248 2.624-6.784 5.408-6.784 3.04 0 5.15 2.048 5.15 5.888 0 5.76-5.184 7.55-8.64 15.615h8.768v1.92h-10.88z" />
        <use xlink:href="#L" />
        <use xlink:href="#L" x="12.809" />
        <path
            d="M219.092 185.27c-3.584 0-5.695-2.815-5.695-6.144 0-2.848 1.504-4.896 3.7-6.463-2.047-1.632-3.2-3.232-3.2-5.952 0-3.04 2.304-5.184 5.184-5.184s5.184 2.144 5.184 5.184c0 2.72-1.152 4.32-3.2 5.952 2.208 1.568 3.712 3.616 3.712 6.463 0 3.328-2.1 6.144-5.695 6.144zm0-11.4c-1.855 1.376-3.392 2.848-3.392 5.344 0 1.888 1.023 4.127 3.392 4.127s3.392-2.24 3.392-4.127c0-2.496-1.536-3.968-3.392-5.344zm0-10.43c-1.984 0-2.88 1.536-2.88 3.008 0 2.336 1.152 4.063 2.88 5.12 1.728-1.056 2.88-2.784 2.88-5.12 0-1.472-.896-3.008-2.88-3.008zm699.345 21.5v-1.92c2.05-6.848 8.447-10.687 8.447-15.935 0-2.432-1.215-3.648-2.783-3.648-1.824 0-3.168 1.408-3.36 4.864h-2.113c.256-5.248 2.625-6.783 5.408-6.783 3.04 0 5.152 2.048 5.152 5.887 0 5.76-5.184 7.552-8.64 15.615h8.768v1.92h-10.88zm17.875.32c-3.775 0-5.566-3.52-5.566-11.87s1.8-11.87 5.566-11.87 5.568 3.52 5.568 11.87-1.793 11.87-5.568 11.87zm0-21.823c-2.1 0-3.264 2.368-3.264 9.952s1.152 9.95 3.264 9.95 3.264-2.368 3.264-9.95-1.152-9.952-3.264-9.952zm7.488 21.503v-1.92h2.816v-18.56l-2.88.256v-1.408c1.3-.32 2.592-.896 3.646-1.8h1.537v21.502h2.688v1.92h-7.8zm15.24.32c-3.584 0-5.695-2.816-5.695-6.144 0-2.848 1.504-4.896 3.7-6.464-2.05-1.632-3.2-3.23-3.2-5.95 0-3.04 2.303-5.184 5.184-5.184s5.184 2.144 5.184 5.184c0 2.72-1.152 4.32-3.2 5.95 2.2 1.568 3.713 3.616 3.713 6.464 0 3.327-2.1 6.144-5.695 6.144zm0-11.392c-1.855 1.376-3.393 2.848-3.393 5.344 0 1.888 1.023 4.128 3.393 4.128s3.4-2.24 3.4-4.128c0-2.496-1.535-3.968-3.4-5.344zm0-10.432c-1.984 0-2.88 1.536-2.88 3.008 0 2.336 1.152 4.064 2.88 5.12 1.727-1.056 2.88-2.784 2.88-5.12 0-1.472-.896-3.008-2.88-3.008z" />
    </g>
    <path
        d="M198.06 220.72l-6.44 16.604c-.225.56-.56.784-1.035.784-.617 0-1.262-.476-1.262-1.176 0-.168.057-.308.113-.476l6.104-15.932h-7.477a1.15 1.15 0 0 1-1.176-1.204c0-.644.533-1.176 1.176-1.176h9.213c.615 0 1.232.392 1.232 1.204 0 .336-.365 1.092-.45 1.372zm7.534 17.836c-3.416 0-6.187-2.772-6.187-6.16 0-2.156 1.035-3.976 2.715-5.096-1.26-1.008-1.988-2.492-1.988-4.2a5.47 5.47 0 0 1 5.461-5.46 5.49 5.49 0 0 1 5.46 5.46c0 1.708-.727 3.192-1.988 4.2 1.625 1.12 2.7 2.94 2.7 5.068 0 3.416-2.744 6.188-6.16 6.188zm0-9.996c-2.1 0-3.8 1.764-3.8 3.808 0 2.1 1.736 3.808 3.78 3.808 2.102 0 3.8-1.736 3.8-3.78 0-2.1-1.736-3.836-3.78-3.836zm0-8.512c-1.764 0-3.053 1.372-3.053 3.052 0 1.708 1.3 3.108 3.053 3.108 1.68 0 3.05-1.4 3.05-3.108a3.06 3.06 0 0 0-3.051-3.052z"
        fill="#222d56" />
    <path
        d="M193.133 376.12c-5.908 0-6.384-6.02-6.384-10.444 0-5.236 1.147-10.472 6.384-10.472 2.352 0 4.032 1.036 5.18 2.8a1.1 1.1 0 0 1 .252.728c0 .644-.588 1.148-1.23 1.148-.364 0-.73-.168-1-.56-.728-1.092-1.68-1.708-3.2-1.708-2.66 0-3.893 2.38-3.977 7.728.925-.896 2.353-1.596 3.977-1.596 3.36 0 6.02 2.912 6.02 6.188s-2.66 6.188-6.02 6.188zm0-9.996c-1.932 0-3.556 1.68-3.668 3.864.364 2.184 1.512 3.752 3.668 3.752 1.932 0 3.612-1.736 3.612-3.808s-1.68-3.808-3.612-3.808zm13.16 9.996c-2.156 0-4.06-1.12-5.096-2.856-.14-.224-.196-.448-.196-.644 0-.672.588-1.176 1.232-1.176.363 0 .756.14 1.008.56.616 1.064 1.735 1.736 3.023 1.736 2.1 0 3.836-1.736 3.836-3.78 0-2.1-1.708-3.836-3.808-3.836h-.028c-.728 0-1.176-.56-1.176-1.176s.477-1.204 1.204-1.204c1.708 0 3.08-1.316 3.08-3.08 0-1.68-1.372-3.052-3.08-3.052-2.716 0-2.744 2.744-4.2 2.744-.644 0-1.26-.504-1.26-1.176a1.23 1.23 0 0 1 .196-.672c.672-1.036 2.352-3.304 5.264-3.304a5.47 5.47 0 0 1 5.46 5.46c0 1.708-.728 3.192-1.988 4.2 1.624 1.12 2.716 2.94 2.716 5.068a6.19 6.19 0 0 1-6.187 6.188z"
        fill="#0f1837" />
    <g fill="#14282f">
        <use xlink:href="#M" />
        <path
            d="M211.364 691.627l-6.44 16.604c-.224.56-.56.784-1.035.784-.616 0-1.26-.477-1.26-1.177 0-.168.057-.308.112-.476l6.104-15.932h-7.477a1.15 1.15 0 0 1-1.176-1.204c0-.645.532-1.176 1.176-1.176h9.212c.616 0 1.232.392 1.232 1.204 0 .336-.364 1.092-.448 1.37z" />
    </g>
    <path
        d="M194.04 811.537c-.588 0-1.176-.448-1.176-1.176v-15.008l-2.24 2.184c-.252.252-.532.336-.784.336-.672 0-1.26-.616-1.26-1.23a1.14 1.14 0 0 1 .364-.84l4.172-4.03c.336-.3.7-.448 1.036-.448.784 0 1.12.784 1.12 1.428v17.584c0 .756-.588 1.204-1.232 1.204zm10.164.476c-5.908 0-6.384-6.02-6.384-10.443 0-5.236 1.147-10.472 6.384-10.472 2.352 0 4.032 1.035 5.18 2.8a1.1 1.1 0 0 1 .252.728c0 .645-.588 1.148-1.23 1.148-.364 0-.73-.168-1-.56-.728-1.092-1.68-1.708-3.2-1.708-2.66 0-3.893 2.38-3.977 7.73.925-.896 2.353-1.597 3.977-1.597 3.36 0 6.02 2.912 6.02 6.188s-2.66 6.188-6.02 6.188zm0-9.995c-1.932 0-3.556 1.68-3.668 3.863.364 2.185 1.512 3.752 3.668 3.752 1.932 0 3.612-1.735 3.612-3.808s-1.68-3.808-3.612-3.808z"
        fill="#0f2128" />
    <g fill="#4d4d4d">
        <path
            d="M197.09 566.973h-1.204v2.185c0 .756-.644 1.176-1.203 1.176-.59 0-1.204-.42-1.204-1.176v-2.185h-6.692c-.784 0-1.26-.476-1.26-1.12a1.14 1.14 0 0 1 .168-.616l7.728-14.7c.225-.448.645-.644 1.01-.644.644 0 1.26.504 1.26 1.147 0 .196-.028.392-.168.616l-6.776 12.936h4.732v-3.19c0-.812.588-1.232 1.176-1.232.616 0 1.23.393 1.23 1.204v3.22h1.204c.784 0 1.204.56 1.204 1.204 0 .616-.42 1.176-1.204 1.176z" />
        <use xlink:href="#M" x="10.168" y="-138.654" />
    </g>
    <path
        d="M945.26 918.522h-1.204v2.185c0 .756-.644 1.176-1.203 1.176-.59 0-1.204-.42-1.204-1.176v-2.185h-6.692c-.784 0-1.26-.476-1.26-1.12a1.14 1.14 0 0 1 .168-.615l7.728-14.7c.225-.448.645-.644 1.008-.644.645 0 1.26.504 1.26 1.147 0 .196-.028.392-.168.616l-6.776 12.936h4.732v-3.19c0-.812.588-1.232 1.176-1.232.616 0 1.23.393 1.23 1.204v3.22h1.204c.784 0 1.204.56 1.204 1.204 0 .616-.42 1.176-1.204 1.176z"
        fill="#0f2128" />
    <path
        d="M935.35 839.196c-.588 0-1.176-.448-1.176-1.176v-15.008l-2.24 2.184a1.08 1.08 0 0 1-.783.336c-.672 0-1.26-.616-1.26-1.23 0-.3.1-.6.363-.84l4.172-4.03c.336-.3.7-.448 1.037-.448.783 0 1.12.784 1.12 1.428v17.584c0 .756-.588 1.204-1.232 1.204zm8.962.476c-2.156 0-4.06-1.12-5.096-2.855a1.22 1.22 0 0 1-.197-.645c0-.672.588-1.176 1.232-1.176.363 0 .756.14 1.008.56a3.46 3.46 0 0 0 3.023 1.735c2.102 0 3.836-1.735 3.836-3.78 0-2.1-1.707-3.836-3.807-3.836h-.03c-.727 0-1.176-.56-1.176-1.177s.477-1.204 1.205-1.204c1.707 0 3.08-1.315 3.08-3.08 0-1.68-1.373-3.053-3.08-3.053-2.717 0-2.744 2.744-4.2 2.744-.643 0-1.26-.504-1.26-1.176a1.24 1.24 0 0 1 .197-.672c.672-1.036 2.352-3.304 5.264-3.304a5.47 5.47 0 0 1 5.459 5.46c0 1.708-.727 3.2-1.988 4.2 1.625 1.12 2.717 2.94 2.717 5.068a6.19 6.19 0 0 1-6.187 6.188z"
        fill="#14282f" />
    <path
        d="M938.18 746.483h-8.568c-.812 0-1.287-.476-1.287-1.064 0-.252.084-.504.252-.756l7.643-11.62c.336-.532.533-1.177.533-1.68 0-1.65-1.232-2.912-2.885-2.912-1.484 0-2.744 1.26-3.22 2.156-.225.42-.588.588-.953.588-.645 0-1.232-.504-1.232-1.147 0-.868 1.988-4.004 5.404-4.004a5.28 5.28 0 0 1 5.264 5.264c0 1.12-.4 2.212-.95 3.023l-6.412 9.772h6.412c.813 0 1.232.56 1.232 1.204 0 .588-.42 1.176-1.232 1.176zm8.148.28c-1.877 0-4.004-1.008-5.04-2.66a1.25 1.25 0 0 1-.195-.672c0-.645.56-1.148 1.203-1.148.533 0 .73.196 1.148.756.7.868 1.793 1.345 2.885 1.345 1.932 0 3.9-1.765 3.9-4.284 0-2.548-1.96-4.312-3.9-4.312-1.484 0-2.492.756-2.97 1.568-.225.42-.615.644-1.092.644-.73 0-1.203-.476-1.203-1.4v-8.876c0-.645.56-1.176 1.203-1.176h8.512c.813 0 1.232.56 1.232 1.204 0 .588-.393 1.176-1.176 1.176h-7.393v5.235c.672-.476 1.736-.756 2.885-.756 3.443 0 6.27 2.912 6.27 6.692 0 3.724-2.828 6.664-6.27 6.664z"
        fill="#0f1837" />
    <g fill="#222d56">
        <path
            d="M938.935 709.132h-8.568c-.812 0-1.287-.476-1.287-1.064 0-.252.084-.504.252-.756l7.643-11.62c.336-.53.533-1.176.533-1.68 0-1.65-1.232-2.912-2.885-2.912-1.484 0-2.744 1.26-3.22 2.156-.225.42-.588.588-.953.588-.645 0-1.232-.504-1.232-1.147 0-.868 1.988-4.004 5.404-4.004 2.912 0 5.264 2.38 5.264 5.264 0 1.12-.39 2.212-.95 3.023l-6.412 9.772h6.412c.813 0 1.232.56 1.232 1.204 0 .588-.42 1.176-1.232 1.176z" />
        <use xlink:href="#N" />
    </g>
    <g fill="#4d4d4d">
        <path
            d="M935.828 802.7c-.588 0-1.176-.448-1.176-1.176v-15.008l-2.24 2.184c-.252.252-.533.336-.785.336-.672 0-1.26-.616-1.26-1.23a1.15 1.15 0 0 1 .365-.841l4.172-4.03c.336-.31.7-.448 1.035-.448.785 0 1.12.784 1.12 1.428v17.584c0 .756-.588 1.204-1.232 1.204z" />
        <use xlink:href="#N" x="-2.156" y="93.57" />
    </g>
    <g class="d">
        <path
            d="M513.642 1046.358c-1.2 0-3.22-.42-3.92-1.58-.08-.12-.08-.22-.08-.3 0-.32.28-.6.58-.6.12 0 .32.1.44.28.72.88 2 1.06 2.98 1.06 1.94 0 2.92-.64 2.92-1.94 0-3.02-6.56-1.42-6.56-5.422 0-2.02 2.02-2.8 3.84-2.8 1.04 0 2.64.36 3.44 1.16.12.12.18.26.18.38a.65.65 0 0 1-.62.6.53.53 0 0 1-.38-.16c-.62-.6-1.74-.84-2.62-.84-1.76 0-2.7.68-2.7 1.66 0 2.8 6.56 1.32 6.56 5.422 0 2.28-2 3.08-4.06 3.08z" />
        <use xlink:href="#O" />
        <path
            d="M540.143 1045.98c-.28 0-.58-.2-.58-.56v-.64c-.84.98-2.06 1.54-3.42 1.54-2.48 0-4.56-2.08-4.56-4.56v-5.842c0-.36.3-.56.58-.56.26 0 .56.2.56.56v5.842c0 1.9 1.52 3.42 3.42 3.42s3.42-1.52 3.42-3.42v-5.842c0-.36.3-.56.58-.56.26 0 .56.2.56.56v9.502c0 .36-.3.56-.56.56z" />
        <use xlink:href="#P" />
        <use xlink:href="#Q" />
        <use xlink:href="#R" />
        <use xlink:href="#S" />
        <path
            d="M583.34 1039.417c-.64 0-1.16-.5-1.16-1.14s.52-1.14 1.16-1.14c.62 0 1.12.5 1.12 1.14s-.5 1.14-1.12 1.14zm0 6.562c-.64 0-1.16-.5-1.16-1.14s.52-1.14 1.16-1.14c.62 0 1.12.5 1.12 1.14s-.5 1.14-1.12 1.14z" />
        <use xlink:href="#T" />
        <use xlink:href="#R" x="43.459" />
        <use xlink:href="#U" />
        <use xlink:href="#V" />
        <path
            d="M643.1 1041.237H634.8c.18 2.28 1.66 3.94 3.84 3.94 1.08 0 2.36-.48 2.94-1.38.14-.22.3-.28.48-.28.3 0 .62.24.62.54 0 .18 0 .22-.38.66-.92 1.08-2.26 1.6-3.66 1.6-3.22 0-5.02-2.64-5.02-5.66 0-3 1.8-5.64 5.02-5.64s5.02 2.66 5.02 5.64c0 .3-.28.58-.56.58zm-4.46-5.08c-2.4 0-3.66 1.84-3.84 3.94h7.7c-.18-2.28-1.66-3.94-3.86-3.94z" />
        <use xlink:href="#P" x="102.498" />
        <use xlink:href="#S" x="79.84" />
        <path
            d="M670.7 1032.855h-.62c-.48 0-.88.4-.88.86v1.64h1.5c.38 0 .56.3.56.56 0 .28-.2.58-.56.58h-1.5v8.922c0 .36-.28.56-.56.56s-.56-.18-.56-.56v-8.922h-1.38c-.36 0-.56-.3-.56-.58 0-.26.2-.56.56-.56h1.38v-1.64c0-1.1.9-1.98 1.98-1.98h.64c.36 0 .58.28.58.58 0 .28-.2.54-.58.54z" />
        <use xlink:href="#O" x="153.397" />
        <use xlink:href="#P" x="141.618" />
        <path
            d="M701.68 1045.98h-4.44c-.3 0-.58-.28-.58-.56v-13.122c0-.3.28-.56.58-.56h4.44c4.12 0 5.48 3.44 5.48 7.102 0 3.72-1.36 7.142-5.48 7.142zm0-13.123h-3.88v11.982h3.88c3.42 0 4.34-2.96 4.34-5.98 0-3.562-1.24-6.002-4.34-6.002zm8.56.58c-.64 0-1.14-.5-1.14-1.14s.5-1.14 1.14-1.14 1.14.5 1.14 1.14-.5 1.14-1.14 1.14zm0 12.543c-.28 0-.58-.18-.58-.56v-9.502c0-.36.28-.56.58-.56.26 0 .56.18.56.56v9.502c0 .36-.26.56-.56.56z" />
        <use xlink:href="#S" x="140.84" />
        <use xlink:href="#R" x="162.297" />
        <use xlink:href="#W" />
        <use xlink:href="#S" x="175.14" />
        <use xlink:href="#R" x="196.597" />
        <use xlink:href="#T" x="182.218" />
        <use xlink:href="#O" x="266.717" />
        <use xlink:href="#U" x="182.22" />
        <use xlink:href="#V" x="182.22" />
        <use xlink:href="#P" x="272.756" />
        <use xlink:href="#O" x="303.095" />
        <path
            d="M836.837 1046.1c-1.08 0-1.98-1-1.98-2.12v-11.683c0-.36.3-.56.58-.56.26 0 .56.2.56.56v11.683c0 1.28 1.42.54 1.42 1.44 0 .34-.24.68-.58.68zm3.2 1.66c-.08.06-.2.08-.3.08-.32 0-.54-.28-.54-.58 0-.56.86-.64 1-1.28-.6-.04-1.08-.54-1.08-1.14a1.16 1.16 0 0 1 1.16-1.16c.98 0 1.2 1 1.2 1.62 0 .98-.52 1.92-1.44 2.46zm15.18-7.943h-4.86v5.6c0 .36-.3.56-.56.56-.28 0-.58-.2-.58-.56v-13.122c0-.3.28-.56.58-.56h5.4c2.26 0 4.06 1.8 4.06 4.02 0 2.26-1.8 4.062-4.04 4.062zm0-6.962h-4.86v5.82h4.84c1.62 0 2.92-1.28 2.92-2.9s-1.3-2.92-2.9-2.92z" />
        <use xlink:href="#R" x="301.135" />
        <path
            d="M887.1 1036.097l-3.26 9.4c-.14.38-.32.48-.58.48-.34 0-.44-.12-.56-.48l-2.62-7.802-2.62 7.802c-.14.38-.32.48-.58.48s-.46-.16-.56-.48l-3.24-9.4a.85.85 0 0 1-.04-.22c0-.32.32-.52.58-.52.2 0 .44.1.52.38l2.74 7.922 2.62-7.822c.12-.38.24-.48.58-.48.24 0 .44.08.56.48l2.66 7.822 2.7-7.922c.1-.28.3-.38.52-.38.3 0 .62.2.62.54a.59.59 0 0 1-.04.2zm16.298 9.9a.49.49 0 0 1-.42-.239l-4.302-5.94h-3.58v5.6c0 .36-.3.56-.56.56-.28 0-.58-.2-.58-.56v-13.122c0-.3.28-.56.58-.56h5.4c2.26 0 4.06 1.8 4.06 4.02 0 2.2-1.72 3.94-3.9 4.062l3.78 5.24c.1.12.14.24.14.36 0 .3-.3.58-.62.58zm-3.44-13.143h-4.86v5.82h4.84a2.91 2.91 0 0 0 2.921-2.921c0-1.82-1.54-2.9-2.9-2.9z" />
        <use xlink:href="#R" x="345.874" />
        <use xlink:href="#S" x="345.876" />
        <use xlink:href="#R" x="367.334" />
        <use xlink:href="#W" x="205.037" />
        <use xlink:href="#P" x="409.434" />
        <use xlink:href="#Q" x="409.433" />
        <path
            d="M978.835 1045.98c-.28 0-.58-.2-.58-.56v-5.84c0-1.9-1.52-3.42-3.42-3.42a3.42 3.42 0 0 0-3.421 3.421v5.84c0 .36-.3.56-.56.56-.28 0-.58-.2-.58-.56v-13.122c0-.36.3-.56.58-.56.26 0 .56.2.56.56v4.26c.84-.98 2.06-1.54 3.42-1.54a4.6 4.6 0 0 1 4.561 4.561v5.84c0 .36-.3.56-.56.56z" />
        <use xlink:href="#T" x="394.874" />
        <use xlink:href="#R" x="438.333" />
        <use xlink:href="#U" x="394.874" />
        <use xlink:href="#V" x="394.874" />
        <use xlink:href="#R" x="468.112" />
        <use xlink:href="#P" x="497.372" />
    </g>
    <g fill="#4f5c8a">
        <path
            d="M42.328 1046.045c-3.568 0-5.47-1.97-5.503-2.002 0 .935-.7 1.4-1.468 1.4-.7 0-1.4-.467-1.4-1.4v-20.88a1.35 1.35 0 0 1 1.401-1.434c.767 0 1.468.467 1.468 1.4v6.238c1.334-1.368 3.168-2.17 5.503-2.17 5.37 0 8.373 4.403 8.373 9.406 0 5.037-3.002 9.44-8.373 9.44zm0-16c-3.335 0-5.503 2.602-5.503 6.57 0 4.003 2.168 6.604 5.503 6.604s5.504-2.602 5.504-6.604c0-3.97-2.168-6.57-5.504-6.57zm25.555 8.037h-12.34c.467 3.136 2.468 5.137 5.403 5.137 1.5 0 3.002-.533 3.97-1.734.3-.333.634-.533 1.034-.533.734 0 1.5.667 1.5 1.468 0 .4-.1.7-.8 1.4-1.5 1.468-3.57 2.235-5.704 2.235-5.37 0-8.372-4.437-8.372-9.44 0-4.97 3.002-9.406 8.372-9.406 5.437 0 8.34 4.437 8.34 9.406 0 .734-.534 1.468-1.4 1.468zm-6.937-8.038c-3.136 0-4.97 2.3-5.403 5.17H66.35c-.467-3.202-2.468-5.17-5.403-5.17zM88 1045.478c-1.834 0-2.668-1.3-2.97-1.9-1.334 1.468-3.27 2.47-5.87 2.47-5.437 0-8.372-4.47-8.372-9.44s3.002-9.406 8.372-9.406c2.335 0 4.203.834 5.504 2.202v-.134c0-.367.133-1.5 1.4-1.5.7 0 1.468.367 1.468 1.4v12.875c0 .434.3.6.467.6.935 0 1.435.667 1.435 1.434a1.37 1.37 0 0 1-1.435 1.401zm-8.84-15.443c-3.336 0-5.504 2.602-5.504 6.57 0 4.003 2.168 6.604 5.504 6.604 3.37 0 5.504-2.602 5.504-6.604 0-3.97-2.135-6.57-5.504-6.57z" />
        <use xlink:href="#X" />
        <path
            d="M115.158 1045.478h-.567c-3.17 0-4.37-1.668-4.37-4.403V1030.6h-1c-.8 0-1.435-.634-1.435-1.4 0-.8.634-1.435 1.4-1.435h1v-4.637c0-.934.7-1.4 1.435-1.4s1.4.467 1.4 1.4v4.637h2.135c.934 0 1.4.768 1.4 1.4 0 .8-.533 1.434-1.4 1.434h-2.135v10.774c0 .934.333 1.268 1.268 1.268h.833c.868 0 1.435.634 1.435 1.4 0 .8-.533 1.435-1.4 1.435zm4.604-20.415a2.402 2.402 0 1 1 0-4.803 2.402 2.402 0 1 1 0 4.803zm0 20.414c-.733 0-1.467-.5-1.467-1.4V1029.2c0-.935.733-1.435 1.467-1.435a1.37 1.37 0 0 1 1.401 1.435v14.876c0 .935-.7 1.4-1.4 1.4zm10.376-14.877h-1.5v13.442c0 .935-.7 1.4-1.468 1.4-.7 0-1.4-.467-1.4-1.4V1030.6h-1.37c-.9 0-1.4-.667-1.4-1.4 0-.768.5-1.435 1.4-1.435h1.367v-2.27c0-2.135 1.77-3.77 3.836-3.77.968 0 1.468.667 1.468 1.434 0 .7-.5 1.4-1.468 1.4-.566 0-.967.434-.967.9v2.302h1.5c.967 0 1.468.667 1.468 1.435 0 .733-.5 1.4-1.468 1.4z" />
        <use xlink:href="#X" x="42.068" />
        <path
            d="M154.725 1045.544c-1.802 0-3.336-1.534-3.336-3.402v-18.98c0-.967.7-1.434 1.435-1.434s1.435.467 1.435 1.4v19.013c0 .4.3.567.467.567.934 0 1.435.667 1.435 1.435 0 .733-.5 1.4-1.435 1.4zm15.37-.066v-1.264c1.886-.237 2.046-.437 2.046-3.157v-6.7c0-2.8-1.248-4.017-3.064-4.017-1.237 0-2.345.6-3.47 1.493v9.476c0 2.527.187 2.658 2.06 2.896v1.264h-8.968v-1.264c2.254-.33 2.5-.4 2.5-3v-8.2c0-2.446-.303-2.565-2.185-2.922v-1.184c2.173-.292 4.63-.807 6.653-1.533l-.052 2.95 2.6-1.745c1.16-.713 2-1.086 3.16-1.086 3.194 0 5.2 2.338 5.2 6.3v7.5c0 2.54.237 2.657 2.277 2.92v1.264h-8.74zm23.9-3.703c-2.458 3.427-5.488 4.178-7.014 4.178-5.142 0-8.124-3.936-8.124-8.594 0-2.745 1.183-5.396 2.832-7.062 1.74-1.8 3.945-2.814 6.082-2.814 3.73 0 6.396 3.126 6.37 6.347-.014.715-.08 1.277-.612 1.4-.767.184-6.17.5-10.318.647.062 4.587 2.717 6.74 5.556 6.74 1.572 0 3.104-.597 4.543-1.866l.686 1.014zm-7.07-12.7c-1.667 0-3.167 1.807-3.516 4.963l5.486-.118c.6-.026.848-.146.848-.792.04-2.022-1.037-4.053-2.818-4.053zm34.284.145c-1.943.343-2.248.624-3.105 2.765-1.33 3.462-3.102 8.53-4.934 13.94h-1.512l-4.65-11.46-4.55 11.46h-1.472l-4.685-14.192c-.687-1.985-.94-2.274-2.855-2.512v-1.25h9.397v1.25c-2.325.345-2.535.672-2.058 2.133l2.52 8.214c1.507-3.68 2.988-7.62 4.327-11.424h1.456c1.4 3.76 2.986 7.702 4.573 11.568.742-2.107 2.062-5.964 2.557-8.108.412-1.674-.008-2.078-2.753-2.383v-1.25h7.742v1.25zm9.4 3.746c-.92-2.606-2.155-3.984-4.2-3.984-1.206 0-2.225.86-2.225 2.266 0 1.497 1.046 2.264 3.16 3.216 3.278 1.496 5.3 2.787 5.3 5.736 0 3.85-3.6 5.764-6.945 5.764-2.06 0-4.088-.737-4.92-1.16l-.662-4.892 1.252-.224c.8 2.5 2.33 4.75 4.976 4.75 1.505 0 2.438-.952 2.438-2.28 0-1.423-.76-2.333-3.092-3.467-2.67-1.295-5.107-2.64-5.107-5.775 0-3.046 2.533-5.42 6.565-5.42 1.818 0 3.242.396 4.112.567l.62 4.577-1.25.328z" />
    </g>
    <g fill="#fff">
        <path
            d="M125.775 83.08c-8.22 0-15.06-6.6-15.06-15.06V41.8c0-1.68 1.26-2.52 2.58-2.52s2.58.84 2.58 2.52v26.22c0 5.52 4.44 9.96 9.9 9.96s9.96-4.44 9.96-9.96V41.86c0-1.74 1.2-2.58 2.52-2.58 1.38 0 2.58.84 2.58 2.52v26.22c0 8.22-6.6 15.06-15.06 15.06zm33.06-.06c-4.38 0-10.5-1.8-13.92-4.98-.66-.6-.84-1.26-.84-1.86a2.6 2.6 0 0 1 2.58-2.58c.9 0 1.2.3 2.28 1.14 2.94 2.22 6.42 3.18 9.9 3.18 7.14 0 10.26-2.58 10.26-7.02 0-12.48-23.938-5.4-23.938-21.72 0-7.32 6.18-10.98 14.1-10.98 4.14 0 10.08 1.62 13.02 5.1.48.54.66 1.08.66 1.62 0 1.44-1.32 2.7-2.58 2.7-.9 0-1.38-.42-2.4-1.32-2.4-2.04-5.46-2.94-8.7-2.94-6.48 0-8.94 2.58-8.94 5.82 0 11.22 23.938 4.56 23.938 21.72 0 8.94-7.5 12.12-15.42 12.12zm55.018-38.64h-9.96v35.1c0 1.62-1.2 2.52-2.52 2.52-1.26 0-2.58-.9-2.58-2.52v-35.1h-9.84c-1.74 0-2.64-1.32-2.64-2.58 0-1.2.9-2.52 2.58-2.52h24.96c1.68 0 2.58 1.32 2.58 2.52 0 1.26-.9 2.58-2.58 2.58z" />
        <use xlink:href="#Y" />
        <use xlink:href="#Y" x="32.76" />
        <use xlink:href="#Z" />
        <path
            d="M343.504 63.52h-12.84v15.9c0 1.56-1.2 2.58-2.52 2.58-1.44 0-2.64-.96-2.64-2.52V41.862c0-1.08.72-2.58 2.52-2.58h15.54c5.28 0 12.06 4.14 12.06 12.06 0 6.78-5.4 12.18-12.12 12.18zm0-19.14h-12.84v14.04h12.78a6.99 6.99 0 0 0 7.021-7.02c0-3.9-3.12-7.02-6.96-7.02zm29.88 9.84c-4.62 0-8.52 3.9-8.52 8.58v16.62c0 1.68-1.26 2.58-2.64 2.58-1.26 0-2.52-.9-2.52-2.52V52.72c0-1.68 1.38-2.58 2.52-2.58 1.2 0 2.34.66 2.58 2.04a13.88 13.88 0 0 1 8.58-3.06c1.74 0 2.64 1.2 2.64 2.58 0 1.32-.9 2.52-2.64 2.52z" />
        <use xlink:href="#Y" x="160.964" />
        <path
            d="M422.152 95.68c-3.66 0-12.72-1.32-12.72-4.92 0-1.38 1.26-2.7 2.58-2.7 1.38 0 .18.18 3.36 1.38 1.44.54 3.6 1.14 6.78 1.14 6.66 0 9.9-3.18 9.9-9.48v-2.7c-2.34 2.22-5.7 3.6-9.9 3.6-9.48 0-15.06-6.72-15.06-15.96 0-9 5.4-16.92 15.06-16.92 4.2 0 7.44 1.26 9.9 3.84v-.24c0-1.68 1.38-2.58 2.58-2.58 1.26 0 2.58.9 2.58 2.58V81.1c0 9.54-5.7 14.58-15.06 14.58zm0-41.458c-6 0-9.9 4.68-9.9 11.82 0 6.84 3.6 10.86 9.9 10.86s9.9-4.02 9.9-10.86c0-7.14-3.84-11.82-9.9-11.82z" />
        <use xlink:href="#Z" x="163.065" />
        <use xlink:href="#a" />
        <use xlink:href="#Z" x="231.345" />
        <path
            d="M568.97 78.46c-2.64 2.94-6.3 4.56-10.74 4.56-9.66 0-15.06-7.92-15.06-16.98 0-9 5.4-16.92 15.06-16.92 4.44 0 8.1 1.62 10.74 4.56.48.54.72 1.14.72 1.74 0 1.32-1.32 2.58-2.7 2.58-.54 0-1.2-.24-1.86-.84-1.68-1.86-3.9-2.94-6.9-2.94-6 0-9.9 4.68-9.9 11.82 0 7.2 3.9 11.88 9.9 11.88 3 0 5.28-1.14 6.9-2.94.54-.66 1.26-.9 1.86-.9 1.38 0 2.7 1.2 2.7 2.64 0 .54-.24 1.2-.72 1.74zm7.56-33.18a4.32 4.32 0 1 1 0-8.64 4.32 4.32 0 1 1 0 8.64zm0 36.72c-1.32 0-2.64-.9-2.64-2.52V52.72c0-1.68 1.32-2.58 2.64-2.58 1.26 0 2.52.9 2.52 2.58v26.76c0 1.68-1.26 2.52-2.52 2.52z" />
        <use xlink:href="#Y" x="370.662" />
        <path
            d="M628.19 83.02c-3.3 0-8.82-1.02-11.64-4.5-.36-.54-.54-1.08-.54-1.56 0-1.5 1.44-2.7 2.7-2.7.72 0 1.26.36 1.86 1.02 1.86 2.04 4.92 2.64 7.62 2.64 5.4 0 7.14-1.86 7.14-4.56 0-7.68-18.3-2.94-18.3-15.3 0-6.54 6.12-8.94 11.82-8.94 3.24 0 10.86 1.62 10.86 4.98 0 1.32-1.08 2.7-2.52 2.7-.54 0-1.38-.3-1.98-.78-1.62-1.38-3.96-1.8-6.36-1.8-4.98 0-6.72 1.86-6.72 3.84 0 7.14 18.36 2.52 18.36 15.3 0 7.08-5.94 9.66-12.3 9.66z" />
        <use xlink:href="#b" />
        <use xlink:href="#a" x="216.537" />
        <path
            d="M752.627 53.68l-10.92 26.28c-.54 1.38-1.44 2.04-2.58 2.04-1.02 0-1.98-.66-2.58-2.04l-10.92-26.28c-.12-.42-.18-.72-.18-1.08 0-1.44 1.32-2.46 2.64-2.46.9 0 1.8.48 2.28 1.56l8.76 21 8.76-21c.42-1.14 1.5-1.62 2.34-1.62 1.38 0 2.64.96 2.64 2.46a2.99 2.99 0 0 1-.239 1.14z" />
        <use xlink:href="#Y" x="541.48" />
        <use xlink:href="#b" x="144.718" />
        <path
            d="M867.103 82c-3.3 0-4.8-2.34-5.34-3.42-2.4 2.64-5.88 4.44-10.56 4.44-9.78 0-15.06-8.04-15.06-16.98s5.4-16.92 15.06-16.92c4.2 0 7.56 1.5 9.9 3.96v-.24c0-.66.24-2.7 2.52-2.7 1.26 0 2.64.66 2.64 2.52v23.16c0 .78.54 1.08.84 1.08 1.68 0 2.58 1.2 2.58 2.58 0 1.26-.9 2.52-2.58 2.52zm-15.898-27.78c-6 0-9.9 4.68-9.9 11.82 0 7.2 3.9 11.88 9.9 11.88 6.06 0 9.9-4.68 9.9-11.88 0-7.14-3.84-11.82-9.9-11.82zm27.3 27.9c-3.24 0-6-2.76-6-6.12V41.862c0-1.74 1.26-2.58 2.58-2.58s2.58.84 2.58 2.52V76c0 .72.54 1.02.84 1.02 1.68 0 2.58 1.2 2.58 2.58 0 1.32-.9 2.52-2.58 2.52zm30.12-28.44l-10.92 26.28c-.54 1.38-1.44 2.04-2.58 2.04-1.02 0-1.98-.66-2.58-2.04l-10.92-26.28c-.12-.42-.18-.72-.18-1.08 0-1.44 1.32-2.46 2.64-2.46.9 0 1.8.48 2.28 1.56l8.76 21 8.76-21c.42-1.14 1.5-1.62 2.34-1.62 1.38 0 2.64.96 2.64 2.46 0 .3-.06.72-.24 1.14z" />
        <use xlink:href="#Y" x="697.474" />
        <path
            d="M971.14 81.94c-1.32 0-2.58-.84-2.58-2.52 0 0-3.54 3.6-9.9 3.6-9.66 0-15.06-7.92-15.06-16.98 0-9 5.4-16.92 15.06-16.92 4.2 0 7.56 1.44 9.9 3.9v-11.16c0-1.74 1.26-2.58 2.58-2.58s2.58.84 2.58 2.52V79.42c0 1.68-1.26 2.52-2.58 2.52zm-12.48-27.72c-6 0-9.9 4.68-9.9 11.82 0 7.2 3.9 11.88 9.9 11.88 6.06 0 9.9-4.68 9.9-11.88 0-7.14-3.84-11.82-9.9-11.82z" />
    </g>
    <g class="d">
        <path
            d="M262.5 134.646c-3.307 0-5.775-1.367-7.37-3.6v1.9c0 .684-.57 1.063-1.064 1.063-.53 0-1.102-.38-1.102-1.063V108.01c0-.684.57-1.063 1.102-1.063.494 0 1.064.38 1.064 1.063v8.74c1.596-2.204 4.064-3.572 7.37-3.572 6.117 0 9.535 5.016 9.535 10.715 0 5.737-3.418 10.752-9.535 10.752zm0-19.3c-4.52 0-7.37 3.6-7.37 8.55s2.85 8.587 7.37 8.587 7.37-3.647 7.37-8.587-2.85-8.55-7.37-8.55zm14.392-5.168a2.166 2.166 0 1 1 0-4.332 2.166 2.166 0 1 1 0 4.332zm0 23.822c-.53 0-1.102-.342-1.102-1.063V114.9c0-.684.53-1.063 1.102-1.063.494 0 1.064.342 1.064 1.063v18.048c0 .684-.494 1.063-1.064 1.063zm14.364-18.313c-3.57 0-6.496 2.888-6.496 6.497v10.753c0 .684-.57 1.063-1.064 1.063-.53 0-1.102-.38-1.102-1.063V114.9c0-.684.57-1.063 1.102-1.063.494 0 1.064.38 1.064 1.063v1.558c1.7-1.86 3.95-2.925 6.496-2.925.684 0 1.102.57 1.102 1.063 0 .532-.418 1.102-1.102 1.102zM301.326 134h-1.178c-3.002 0-4.484-1.48-4.484-4.445V116h-1.937c-.684 0-1.062-.57-1.062-1.102 0-.494.38-1.063 1.063-1.063h1.938v-5.813c0-.684.57-1.063 1.104-1.063s1.063.38 1.063 1.063v5.813h3.496c.684 0 1.064.57 1.064 1.063 0 .532-.38 1.102-1.064 1.102h-3.496v13.564c0 1.86.533 2.28 2.318 2.28h1.178c.684 0 1.064.57 1.064 1.103 0 .493-.38 1.063-1.064 1.063zm20.024 0c-.53 0-1.102-.38-1.102-1.063v-11.095a6.47 6.47 0 0 0-6.496-6.497c-3.572 0-6.498 2.888-6.498 6.497v11.095c0 .684-.568 1.063-1.062 1.063-.533 0-1.104-.38-1.104-1.063v-24.925c0-.684.57-1.063 1.104-1.063.494 0 1.063.38 1.063 1.063v8.093c1.596-1.86 3.914-2.926 6.498-2.926 4.7 0 8.662 3.914 8.662 8.663v11.095c0 .684-.57 1.063-1.064 1.063zm11.707.722c-2.28 0-6.117-.798-7.447-3-.152-.23-.152-.418-.152-.57 0-.607.53-1.14 1.102-1.14.23 0 .607.2.836.532 1.367 1.67 3.8 2.014 5.662 2.014 3.686 0 5.547-1.216 5.547-3.686 0-5.737-12.463-2.698-12.463-10.297 0-3.837 3.838-5.32 7.295-5.32 1.977 0 5.016.685 6.535 2.204.23.228.342.494.342.722 0 .57-.57 1.14-1.178 1.14a1 1 0 0 1-.721-.304c-1.18-1.14-3.307-1.596-4.98-1.596-3.344 0-5.13 1.292-5.13 3.153 0 5.32 12.463 2.508 12.463 10.297 0 4.33-3.8 5.85-7.713 5.85zm29.03-.076c-3.307 0-5.775-1.367-7.37-3.6v9.84c0 .684-.57 1.102-1.064 1.102-.53 0-1.102-.418-1.102-1.102V114.9c0-.684.57-1.063 1.102-1.063.494 0 1.064.38 1.064 1.063v1.862c1.596-2.204 4.064-3.572 7.37-3.572 6.117 0 9.535 5.016 9.535 10.715 0 5.737-3.418 10.752-9.535 10.752zm0-19.3c-4.52 0-7.37 3.6-7.37 8.55s2.85 8.587 7.37 8.587 7.37-3.647 7.37-8.587-2.85-8.55-7.37-8.55zm30.435 9.65h-15.768c.342 4.332 3.154 7.485 7.295 7.485 2.053 0 4.484-.912 5.586-2.622.266-.418.57-.53.912-.53.57 0 1.178.455 1.178 1.025 0 .342 0 .418-.723 1.254-1.748 2.052-4.293 3.04-6.953 3.04-6.117 0-9.535-5.015-9.535-10.752 0-5.7 3.418-10.715 9.535-10.715s9.537 5.054 9.537 10.715c0 .57-.53 1.102-1.064 1.102zm-8.473-9.65c-4.56 0-6.953 3.495-7.295 7.485h14.63c-.342-4.332-3.154-7.485-7.334-7.485zm21.966.342c-3.572 0-6.498 2.888-6.498 6.497v10.753c0 .684-.568 1.063-1.062 1.063-.533 0-1.104-.38-1.104-1.063V114.9c0-.684.57-1.063 1.104-1.063.494 0 1.063.38 1.063 1.063v1.558c1.7-1.86 3.95-2.925 6.498-2.925.684 0 1.102.57 1.102 1.063 0 .532-.418 1.102-1.102 1.102z" />
        <use xlink:href="#c" />
        <path
            d="M429.84 137.382c-.152.113-.38.15-.57.15-.607 0-1.025-.53-1.025-1.102 0-1.063 1.635-1.216 1.9-2.432-1.14-.076-2.053-1.025-2.053-2.166 0-1.29 1.064-2.203 2.205-2.203 1.86 0 2.28 1.9 2.28 3.077 0 1.862-.988 3.647-2.736 4.674z" />
        <use xlink:href="#d" />
        <use xlink:href="#d" x="19.608" />
        <use xlink:href="#d" x="39.215" />
        <path
            d="M511.537 109.076h-1.178c-.912 0-1.672.76-1.672 1.633v3.116h2.85c.723 0 1.064.57 1.064 1.063 0 .532-.38 1.102-1.064 1.102h-2.85v16.946c0 .684-.53 1.063-1.062 1.063s-1.064-.342-1.064-1.063V116h-2.62c-.684 0-1.064-.57-1.064-1.102 0-.494.38-1.063 1.064-1.063h2.62v-3.116a3.77 3.77 0 0 1 3.762-3.761h1.215c.686 0 1.103.53 1.103 1.102 0 .532-.38 1.026-1.103 1.026zm21.127 15.92h-15.768c.342 4.332 3.152 7.485 7.295 7.485 2.05 0 4.482-.912 5.584-2.622.268-.418.57-.53.912-.53.57 0 1.178.455 1.178 1.025 0 .342 0 .418-.72 1.254-1.748 2.052-4.293 3.04-6.953 3.04-6.117 0-9.537-5.015-9.537-10.752 0-5.7 3.42-10.715 9.537-10.715s9.537 5.054 9.537 10.715c0 .57-.533 1.102-1.064 1.102zm-8.473-9.65c-4.56 0-6.953 3.495-7.295 7.485h14.627c-.342-4.332-3.152-7.485-7.332-7.485zM562.224 134c-.53 0-1.062-.38-1.062-1.063V120.17c0-2.62-2.205-4.825-4.826-4.825s-4.863 2.204-4.863 4.787v12.805c0 .684-.53 1.063-1.062 1.063s-1.104-.38-1.104-1.063V120.17c0-2.62-2.203-4.825-4.787-4.825-2.658 0-4.863 2.204-4.863 4.787v12.805c0 .684-.568 1.063-1.062 1.063-.533 0-1.104-.38-1.104-1.063V114.9c0-.684.57-1.063 1.104-1.063.494 0 1.063.38 1.063 1.063v.23c1.254-1.216 2.965-1.938 4.826-1.938 2.432 0 4.598 1.216 5.928 3.23 1.252-1.937 3.418-3.23 5.9-3.23 3.95 0 7.03 3.116 7.03 6.953v12.805c0 .684-.57 1.063-1.104 1.063z" />
        <use xlink:href="#e" />
        <path
            d="M595.023 134.228c-2.053 0-3.762-1.9-3.762-4.027v-22.188c0-.684.57-1.063 1.102-1.063.494 0 1.064.38 1.064 1.063V130.2c0 2.432 2.697 1.026 2.697 2.736 0 .645-.455 1.3-1.102 1.3zm20.937-9.233H600.2c.342 4.332 3.152 7.485 7.295 7.485 2.05 0 4.482-.912 5.584-2.622.268-.418.57-.53.912-.53.57 0 1.178.455 1.178 1.025 0 .342 0 .418-.72 1.254-1.748 2.052-4.293 3.04-6.953 3.04-6.117 0-9.537-5.015-9.537-10.752 0-5.7 3.42-10.715 9.537-10.715s9.537 5.054 9.537 10.715c0 .57-.533 1.102-1.064 1.102zm-8.473-9.65c-4.56 0-6.953 3.495-7.295 7.485h14.627c-.342-4.332-3.152-7.485-7.332-7.485zm19.643 19.377c-2.28 0-6.117-.798-7.447-3-.15-.23-.15-.418-.15-.57 0-.607.53-1.14 1.102-1.14.227 0 .607.2.836.532 1.367 1.67 3.8 2.014 5.66 2.014 3.686 0 5.547-1.216 5.547-3.686 0-5.737-12.46-2.698-12.46-10.297 0-3.837 3.836-5.32 7.295-5.32 1.975 0 5.014.685 6.535 2.204.227.228.342.494.342.722 0 .57-.57 1.14-1.178 1.14a1.01 1.01 0 0 1-.723-.304c-1.178-1.14-3.305-1.596-4.977-1.596-3.344 0-5.13 1.292-5.13 3.153 0 5.32 12.46 2.508 12.46 10.297 0 4.33-3.8 5.85-7.713 5.85z" />
        <use xlink:href="#e" x="79" />
        <path
            d="M678.924 142.663c-3.23 0-7.8-1.216-7.8-2.584 0-.608.494-1.216 1.104-1.216.418 0 1.3.646 2.014.912.986.342 2.545.722 4.672.722 4.863 0 7.37-2.394 7.37-7.067v-2.66c-1.672 2.014-4.064 3.23-7.37 3.23-6.002 0-9.535-4.256-9.535-10.106 0-5.7 3.418-10.715 9.535-10.715 3.307 0 5.775 1.368 7.37 3.572v-1.824c0-.684.57-1.063 1.102-1.063.494 0 1.064.38 1.064 1.063v18.503c0 6.04-3.6 9.233-9.537 9.233zm0-27.318c-4.482 0-7.37 3.6-7.37 8.55 0 4.9 2.7 7.94 7.37 7.94s7.37-3.04 7.37-7.94c0-4.94-2.85-8.55-7.37-8.55zm31.312 9.65H694.47c.342 4.332 3.152 7.485 7.295 7.485 2.05 0 4.482-.912 5.584-2.622.268-.418.57-.53.912-.53.57 0 1.178.455 1.178 1.025 0 .342 0 .418-.72 1.254-1.748 2.052-4.293 3.04-6.953 3.04-6.117 0-9.537-5.015-9.537-10.752 0-5.7 3.42-10.715 9.537-10.715s9.537 5.054 9.537 10.715c0 .57-.533 1.102-1.064 1.102zm-8.473-9.65c-4.56 0-6.953 3.495-7.295 7.485h14.627c-.342-4.332-3.152-7.485-7.332-7.485zM732.2 134c-.533 0-1.102-.38-1.102-1.063v-1.9c-1.596 2.242-4.066 3.6-7.37 3.6-6.117 0-9.537-5.015-9.537-10.752 0-5.7 3.42-10.715 9.537-10.715 3.305 0 5.775 1.368 7.37 3.572v-8.74c0-.684.568-1.063 1.102-1.063.494 0 1.064.38 1.064 1.063v24.925c0 .684-.57 1.063-1.064 1.063zm-8.473-18.655c-4.484 0-7.37 3.6-7.37 8.55s2.887 8.587 7.37 8.587c4.52 0 7.37-3.647 7.37-8.587s-2.85-8.55-7.37-8.55z" />
        <use xlink:href="#c" x="328.768" />
        <path
            d="M763.816 134.38c-2.547 0-5.434-1.368-6.84-3.6-.152-.228-.2-.418-.2-.608 0-.607.57-1.102 1.14-1.102s.6.304 1.178.912c1.217 1.443 2.813 2.24 4.713 2.24 3.344 0 6.344-2.887 6.344-6.877 0-4.027-3-6.915-6.344-6.915-2.623 0-4.332 1.672-5.016 2.698-.23.38-.57.53-1.025.53-.646 0-1.104-.417-1.104-1.14v-12.5c0-.646.494-1.063 1.064-1.063h12.7c.76 0 1.14.53 1.14 1.063s-.38 1.064-1.14 1.064h-11.6v8.9c1.217-.988 2.85-1.7 4.98-1.7 4.672 0 8.5 3.95 8.5 9.08 0 5.054-3.838 9.043-8.5 9.043zm23.977-12.196H775.9c-.684 0-1.102-.57-1.102-1.102 0-.494.418-1.064 1.102-1.064h11.893c.723 0 1.102.57 1.102 1.064 0 .532-.38 1.102-1.102 1.102zM797.558 134c-.568 0-1.062-.418-1.062-1.063v-22.72l-4.143 4.027c-.2.228-.455.342-.72.342-.6 0-1.14-.57-1.14-1.178 0-.23.152-.494.342-.722l6.004-5.813c.303-.228.607-.304.72-.304.8 0 1.104.57 1.104 1.33v25.04c0 .646-.457 1.063-1.104 1.063zm13.606.646c-3.2 0-5.47-1.367-7.03-3.76-.2-.23-.23-.418-.23-.646 0-.57.57-1.063 1.14-1.063.303 0 .607.152.873.494 1.217 1.785 2.813 2.812 5.244 2.812 4.787 0 6.496-4.56 6.496-12.007v-.646c-1.596 2.052-4.027 3.268-6.496 3.268-4.56 0-8.17-3.95-8.17-8.396 0-4.483 3.6-8.436 8.17-8.436 7.94 0 8.662 8.17 8.662 14.172 0 7.105-1.52 14.2-8.662 14.2zm0-26.216c-3.268 0-5.965 2.888-5.965 6.27 0 3.343 2.697 6.23 5.965 6.23 2.963 0 6.078-2.62 6.078-6.46-.684-3.23-2.203-6.04-6.078-6.04z" />
    </g>
    <defs>
        <path id="C"
            d="M69.793 216.953a1.8 1.8 0 1 1 0-3.648c1.023 0 1.824.8 1.824 1.824a1.8 1.8 0 0 1-1.824 1.824zm0 20.063c-.448 0-.928-.288-.928-.896v-15.2c0-.576.447-.896.928-.896.416 0 .896.288.896.896v15.2c0 .576-.416.896-.896.896z" />
        <path id="D"
            d="M124.15 237.015h-.03c-1.057 0-2.56-.576-3.168-2.496-1.344 1.888-3.424 3.04-6.208 3.04-5.216 0-8.03-4.288-8.03-9.055 0-4.832 2.88-9.023 8.03-9.023 2.784 0 4.864 1.152 6.208 3.008v-1.568c0-.512.416-.896.928-.896.448 0 .896.32.896.896v12.895c0 2.048 2.305.768 2.305 2.304 0 .416-.288.896-.93.896zm-9.407-15.71c-3.775 0-6.207 3.04-6.207 7.2s2.432 7.23 6.207 7.23c3.808 0 6.208-3.072 6.208-7.23s-2.4-7.2-6.208-7.2z" />
        <path id="E"
            d="M163.695 235.127c-1.407 1.568-3.36 2.432-5.728 2.432-5.15 0-8.03-4.224-8.03-9.055 0-4.8 2.88-9.023 8.03-9.023 2.368 0 4.32.864 5.728 2.432.192.192.256.416.256.608 0 .48-.447.96-.928.96-.224 0-.448-.096-.672-.32-1.056-1.184-2.527-1.856-4.384-1.856-3.775 0-6.207 3.04-6.207 7.2s2.432 7.23 6.207 7.23c1.856 0 3.328-.704 4.384-1.856.224-.224.448-.32.672-.32a.95.95 0 0 1 .928.928c0 .224-.063.416-.256.64z" />
        <path id="F"
            d="M61.327 570.072c-1.943 0-3.6-1.656-3.6-3.672v-20.48c0-1.044.756-1.548 1.548-1.548s1.548.504 1.548 1.512V566.4c0 .432.324.612.504.612 1.008 0 1.548.72 1.548 1.548 0 .792-.54 1.512-1.548 1.512z" />
        <path id="G"
            d="M136.142 688.926a1.8 1.8 0 1 1 0-3.647 1.8 1.8 0 1 1 0 3.647zm0 20.063c-.448 0-.928-.288-.928-.896v-15.2c0-.576.447-.896.928-.896.416 0 .896.288.896.896v15.2c0 .575-.416.896-.896.896z" />
        <path id="H"
            d="M988 794.1h-10.016c-.576 0-.928-.48-.928-.928a.92.92 0 0 1 .928-.896H988a.9.9 0 0 1 .928.896c0 .447-.32.928-.928.928z" />
        <path id="I"
            d="M998.07 804.37c-2.145 0-4.576-1.152-5.76-3.04a.86.86 0 0 1-.16-.512c0-.513.48-.93.96-.93s.512.257 1 .77c1.025 1.216 2.37 1.888 3.97 1.888 2.816 0 5.344-2.432 5.344-5.792 0-3.392-2.527-5.823-5.344-5.823-2.21 0-3.648 1.408-4.225 2.27-.19.32-.48.448-.863.448-.545 0-.928-.352-.928-.96v-10.527c0-.544.416-.896.896-.896h10.686c.64 0 .96.448.96.896s-.32.896-.96.896h-9.758v7.487c1.023-.832 2.398-1.44 4.19-1.44 3.936 0 7.168 3.328 7.168 7.647 0 4.256-3.232 7.616-7.168 7.616z" />
        <path id="J"
            d="M1025.135 786.657c-1.623 0-2.95-1.475-2.95-3.285s1.326-3.266 2.95-3.266c1.605 0 2.93 1.456 2.93 3.266s-1.324 3.285-2.93 3.285zm0-5.506c-.934 0-1.885.877-1.885 2.22s.95 2.22 1.885 2.22 1.867-.877 1.867-2.22-.934-2.22-1.867-2.22zm7.055-.7l-3.564 12.877c-.094.26-.242.392-.467.392-.28 0-.578-.224-.578-.54 0-.057 0-.112.018-.15l3.564-12.877c.094-.28.262-.4.486-.4a.59.59 0 0 1 .559.56c0 .038 0 .075-.018.15zm2.314 12.933c-1.605 0-2.932-1.475-2.932-3.284 0-1.792 1.326-3.266 2.932-3.266 1.623 0 2.947 1.474 2.947 3.266 0 1.8-1.324 3.284-2.947 3.284zm0-5.486c-.934 0-1.867.877-1.867 2.202 0 1.344.934 2.22 1.867 2.22.95 0 1.885-.877 1.885-2.22 0-1.325-.934-2.202-1.885-2.202z" />
        <path id="K"
            d="M998.646 711.938c-6.687 0-7.297-6.848-7.297-11.936 0-5.983 1.28-11.967 7.297-11.967 2.688 0 4.607 1.184 5.918 3.2.16.16.193.352.193.544 0 .447-.48.863-.96.863-.256 0-.512-.096-.736-.416-1.023-1.472-2.367-2.367-4.414-2.367-4.033 0-5.473 3.84-5.473 10.11v.544c1.313-1.696 3.393-2.72 5.473-2.72 3.838 0 6.88 3.327 6.88 7.07s-3.04 7.07-6.88 7.07zm0-12.32c-2.496 0-5.12 2.176-5.12 5.44.576 2.688 1.857 5.056 5.12 5.056 2.75 0 5.023-2.4 5.023-5.247s-2.273-5.248-5.023-5.248z" />
        <path id="L"
            d="M193.695 185.27c-3.775 0-5.567-3.52-5.567-11.87s1.792-11.87 5.567-11.87 5.567 3.52 5.567 11.87-1.792 11.87-5.567 11.87zm0-21.822c-2.112 0-3.264 2.368-3.264 9.95s1.15 9.95 3.264 9.95 3.264-2.368 3.264-9.95-1.152-9.95-3.264-9.95z" />
        <path id="M"
            d="M197.98 708.987h-8.567c-.812 0-1.288-.476-1.288-1.064 0-.252.084-.504.252-.756l7.644-11.62c.336-.53.532-1.176.532-1.68 0-1.65-1.23-2.912-2.884-2.912-1.484 0-2.744 1.26-3.22 2.156-.225.42-.588.588-.952.588-.645 0-1.232-.504-1.232-1.147 0-.868 1.988-4.004 5.404-4.004 2.912 0 5.264 2.38 5.264 5.264 0 1.12-.392 2.212-.952 3.023l-6.41 9.772h6.41c.813 0 1.232.56 1.232 1.204 0 .588-.42 1.176-1.232 1.176z" />
        <path id="N"
            d="M952.32 691.77l-6.44 16.604c-.223.56-.56.784-1.035.784-.615 0-1.26-.477-1.26-1.177 0-.168.057-.308.11-.476l6.105-15.932h-7.477a1.15 1.15 0 0 1-1.176-1.204c0-.645.53-1.176 1.176-1.176h9.21c.617 0 1.232.392 1.232 1.204 0 .336-.363 1.092-.447 1.37z" />
        <path id="O"
            d="M524.363 1046.318c-3.22 0-5.02-2.64-5.02-5.66 0-3 1.8-5.64 5.02-5.64s5.02 2.64 5.02 5.64c0 3.02-1.8 5.66-5.02 5.66zm0-10.162c-2.36 0-3.88 1.9-3.88 4.5s1.52 4.52 3.88 4.52c2.38 0 3.88-1.92 3.88-4.52s-1.5-4.5-3.88-4.5z" />
        <path id="P"
            d="M548.102 1036.337a3.42 3.42 0 0 0-3.421 3.42v5.66c0 .36-.3.56-.56.56-.28 0-.58-.2-.58-.56v-9.502c0-.36.3-.56.58-.56.26 0 .56.2.56.56v.82c.9-.98 2.08-1.54 3.42-1.54.36 0 .58.3.58.56a.58.58 0 0 1-.58.581z" />
        <path id="Q"
            d="M558.282 1044.798c-.88.98-2.1 1.52-3.58 1.52-3.22 0-5.02-2.64-5.02-5.66 0-3 1.8-5.64 5.02-5.64 1.48 0 2.7.54 3.58 1.52a.53.53 0 0 1 .16.381.63.63 0 0 1-.58.6c-.14 0-.28-.06-.42-.2-.66-.74-1.58-1.16-2.74-1.16-2.36 0-3.88 1.9-3.88 4.5s1.52 4.52 3.88 4.52c1.16 0 2.08-.44 2.74-1.16.14-.14.28-.2.42-.2.3 0 .58.26.58.58a.57.57 0 0 1-.16.399z" />
        <path id="R"
            d="M569.863 1041.237h-8.302c.18 2.28 1.66 3.94 3.84 3.94 1.08 0 2.36-.48 2.94-1.38.14-.22.3-.28.48-.28.3 0 .62.24.62.54 0 .18 0 .22-.38.66-.92 1.08-2.26 1.6-3.66 1.6-3.22 0-5.02-2.64-5.02-5.66 0-3 1.8-5.64 5.02-5.64s5.02 2.66 5.02 5.64c0 .3-.28.58-.56.58zm-4.46-5.08c-2.4 0-3.66 1.84-3.84 3.94h7.7c-.18-2.28-1.66-3.94-3.86-3.94z" />
        <path id="S"
            d="M576.14 1046.358c-1.2 0-3.22-.42-3.92-1.58-.08-.12-.08-.22-.08-.3 0-.32.28-.6.58-.6.12 0 .32.1.44.28.72.88 2 1.06 2.98 1.06 1.94 0 2.92-.64 2.92-1.94 0-3.02-6.562-1.42-6.562-5.422 0-2.02 2.02-2.8 3.84-2.8 1.04 0 2.64.36 3.44 1.16.12.12.18.26.18.38a.65.65 0 0 1-.62.6.53.53 0 0 1-.38-.16c-.62-.6-1.74-.84-2.62-.84-1.76 0-2.7.68-2.7 1.66 0 2.8 6.562 1.32 6.562 5.422 0 2.28-2 3.08-4.06 3.08z" />
        <path id="T"
            d="M602.022 1044.138c-.98 1.36-2.38 2.18-4.46 2.18-4.3 0-5.82-3.56-5.82-7.46 0-3.92 1.52-7.482 5.82-7.482 2.02 0 3.5.8 4.44 2.18.1.1.12.2.12.32 0 .32-.3.56-.62.56-.16 0-.32-.06-.44-.22-.72-1.04-1.8-1.7-3.5-1.7-3.32 0-4.682 2.6-4.682 6.342 0 3.72 1.36 6.32 4.682 6.32 1.7 0 2.8-.64 3.54-1.7.1-.2.28-.26.44-.26.3 0 .6.26.6.58 0 .1-.04.22-.12.34z" />
        <path id="U"
            d="M624.82 1045.98c-.28 0-.58-.2-.58-.56v-5.84c0-1.9-1.52-3.42-3.42-3.42a3.42 3.42 0 0 0-3.421 3.421v5.84c0 .36-.3.56-.56.56-.28 0-.58-.2-.58-.56v-9.502c0-.36.3-.56.58-.56.26 0 .56.2.56.56v.64c.9-.98 2.08-1.54 3.42-1.54a4.6 4.6 0 0 1 4.561 4.561v5.84c0 .36-.3.56-.56.56z" />
        <path id="V"
            d="M631.7 1045.98h-.62c-1.58 0-2.36-.78-2.36-2.34v-7.142h-1.02c-.36 0-.56-.3-.56-.58 0-.26.2-.56.56-.56h1.02v-3.06c0-.36.3-.56.58-.56s.56.2.56.56v3.06h1.84c.36 0 .56.3.56.56 0 .28-.2.58-.56.58h-1.84v7.142c0 .98.28 1.2 1.22 1.2h.62c.36 0 .56.3.56.58 0 .26-.2.56-.56.56z" />
        <path id="W"
            d="M745.54 1045.98h-.02c-.66 0-1.6-.36-1.98-1.56-.84 1.18-2.14 1.9-3.88 1.9-3.26 0-5.02-2.68-5.02-5.66 0-3.02 1.8-5.64 5.02-5.64 1.74 0 3.04.72 3.88 1.88v-.98c0-.32.26-.56.58-.56.28 0 .56.2.56.56v8.063c0 1.28 1.44.48 1.44 1.44a.55.55 0 0 1-.58.561zm-5.88-9.822c-2.36 0-3.88 1.9-3.88 4.5s1.52 4.52 3.88 4.52c2.38 0 3.88-1.92 3.88-4.52s-1.5-4.5-3.88-4.5z" />
        <path id="X"
            d="M104.714 1045.51c-.633 0-1.267-.367-1.4-1.1-1.334 1.034-2.97 1.668-4.804 1.668-4.136 0-7.604-3.436-7.604-7.605v-9.24a1.37 1.37 0 0 1 1.4-1.435c.768 0 1.468.5 1.468 1.4v9.272c0 2.602 2.168 4.77 4.736 4.77 2.603 0 4.77-2.17 4.77-4.77v-9.24c0-1.034.667-1.468 1.4-1.468.768 0 1.435.5 1.435 1.435v14.9c0 .934-.667 1.4-1.4 1.4z" />
        <path id="Y"
            d="M240.906 68.68h-22.2c.84 5.64 4.44 9.24 9.72 9.24 2.7 0 5.4-.96 7.14-3.12.54-.6 1.14-.96 1.86-.96 1.32 0 2.7 1.2 2.7 2.64 0 .72-.18 1.26-1.44 2.52-2.7 2.64-6.42 4.02-10.26 4.02-9.66 0-15.06-7.98-15.06-16.98 0-8.94 5.4-16.92 15.06-16.92 9.78 0 15 7.98 15 16.92 0 1.32-.96 2.64-2.52 2.64zm-12.48-14.46c-5.64 0-8.94 4.14-9.72 9.3h19.44c-.84-5.76-4.44-9.3-9.72-9.3z" />
        <path id="Z"
            d="M305.045 82c-1.32 0-2.52-.9-2.52-2.52V62.8c0-4.68-3.9-8.58-8.58-8.58-4.62 0-8.52 3.9-8.52 8.58v16.62c0 1.68-1.26 2.64-2.64 2.64-1.26 0-2.52-.9-2.52-2.58V52.66c0-1.74 1.26-2.52 2.52-2.52 1.2 0 2.28.66 2.58 1.98 2.34-1.86 5.28-3 8.58-3 7.44 0 13.68 6.18 13.68 13.68v16.62c0 1.68-1.2 2.58-2.58 2.58z" />
        <path id="a"
            d="M505.85 82c-3.3 0-4.8-2.34-5.34-3.42-2.4 2.64-5.88 4.44-10.56 4.44-9.78 0-15.06-8.04-15.06-16.98s5.4-16.92 15.06-16.92c4.2 0 7.56 1.5 9.9 3.96v-.24c0-.66.24-2.7 2.52-2.7 1.26 0 2.64.66 2.64 2.52v23.16c0 .78.54 1.08.84 1.08 1.68 0 2.58 1.2 2.58 2.58 0 1.26-.9 2.52-2.58 2.52zm-15.9-27.78c-6 0-9.9 4.68-9.9 11.82 0 7.2 3.9 11.88 9.9 11.88 6.06 0 9.9-4.68 9.9-11.88 0-7.14-3.84-11.82-9.9-11.82z" />
        <path id="b"
            d="M684.167 82c-1.32 0-2.64-.9-2.64-2.52V61.66h-19.8v17.82c0 1.62-1.38 2.52-2.52 2.52-1.32 0-2.64-.9-2.64-2.52V41.802c0-1.68 1.32-2.52 2.64-2.52 1.14 0 2.52.84 2.52 2.52v14.76h19.8v-14.7c0-1.74 1.38-2.58 2.52-2.58 1.32 0 2.64.84 2.64 2.58V79.42c0 1.68-1.38 2.58-2.52 2.58z" />
        <path id="c"
            d="M422.582 134c-.57 0-1.064-.418-1.064-1.063v-22.72l-4.14 4.027a.94.94 0 0 1-.723.342c-.607 0-1.14-.57-1.14-1.178 0-.23.15-.494.342-.722l6.002-5.813c.305-.228.61-.304.723-.304.797 0 1.102.57 1.102 1.33v25.04c0 .646-.455 1.063-1.102 1.063z" />
        <path id="d"
            d="M444.697 134.646c-8.055 0-8.13-9.65-8.13-15.197 0-5.434.836-13.185 8.094-13.185 7.105 0 8.168 7.295 8.168 13.185 0 5.51-.113 15.197-8.13 15.197zm5.965-15.197c0-5.434-.76-11.02-5.965-11.02-5.7 0-5.965 6.99-5.965 11.02v2.432c0 4.407.836 10.6 5.928 10.6 5.205 0 6.002-6.193 6.002-10.6v-2.432z" />
        <path id="e"
            d="M587.46 134h-.037c-1.254 0-3.04-.684-3.762-2.964-1.596 2.242-4.066 3.61-7.37 3.61-6.193 0-9.537-5.09-9.537-10.752 0-5.737 3.42-10.715 9.537-10.715 3.305 0 5.775 1.368 7.37 3.572v-1.862c0-.607.494-1.063 1.102-1.063.53 0 1.064.38 1.064 1.063V130.2c0 2.432 2.734.912 2.734 2.736a1.04 1.04 0 0 1-1.102 1.063zm-11.17-18.655c-4.484 0-7.37 3.61-7.37 8.55s2.887 8.587 7.37 8.587c4.52 0 7.37-3.647 7.37-8.587s-2.85-8.55-7.37-8.55z" />
    </defs>
</svg>